<svg width="14" height="15" viewBox="0 0 14 15" fill="none" xmlns="http://www.w3.org/2000/svg">
<g clip-path="url(#clip0_104_8739)">
<path fill-rule="evenodd" clip-rule="evenodd" d="M3.63448 7.63465C3.63448 8.56339 2.88159 9.31628 1.95286 9.31628C1.02413 9.31628 0.27124 8.56339 0.27124 7.63465C0.27124 6.70592 1.02413 5.95303 1.95286 5.95303C2.88159 5.95303 3.63448 6.70592 3.63448 7.63465ZM8.67821 7.63474C8.67821 8.56347 7.92532 9.31636 6.99659 9.31636C6.06785 9.31636 5.31497 8.56347 5.31497 7.63474C5.31497 6.706 6.06785 5.95312 6.99659 5.95312C7.92532 5.95312 8.67821 6.706 8.67821 7.63474ZM12.0435 9.31636C12.9723 9.31636 13.7252 8.56347 13.7252 7.63474C13.7252 6.706 12.9723 5.95312 12.0435 5.95312C11.1148 5.95312 10.3619 6.706 10.3619 7.63474C10.3619 8.56347 11.1148 9.31636 12.0435 9.31636Z" fill="white"/>
</g>
<defs>
<clipPath id="clip0_104_8739">
<rect width="13.3953" height="13.453" fill="white" transform="translate(0.273438 0.907715)"/>
</clipPath>
</defs>
</svg>
