<svg width="9" height="9" viewBox="0 0 9 9" fill="none" xmlns="http://www.w3.org/2000/svg">
<g clip-path="url(#clip0_901_4180)">
<path fill-rule="evenodd" clip-rule="evenodd" d="M7.49792 0.710571H8.11511V1.32776V7.49963V8.11682H7.49792H4.41199C4.07112 8.11682 3.7948 7.8405 3.7948 7.49963C3.7948 7.15877 4.07112 6.88245 4.41199 6.88245H6.88074V1.94495H4.41199C4.07112 1.94495 3.7948 1.66862 3.7948 1.32776C3.7948 0.986896 4.07112 0.710571 4.41199 0.710571H7.49792ZM2.47069 5.12138C2.59121 5.24189 2.59121 5.43728 2.47069 5.5578C2.35018 5.67831 2.15479 5.67831 2.03428 5.5578L1.1085 4.63202L0.890287 4.41381L1.1085 4.1956L2.03428 3.26982C2.15479 3.1493 2.35018 3.1493 2.47069 3.26982C2.59121 3.39033 2.59121 3.58572 2.47069 3.70623L2.07172 4.10521H5.33842C5.50886 4.10521 5.64702 4.24337 5.64702 4.41381C5.64702 4.58424 5.50886 4.7224 5.33842 4.7224H2.07172L2.47069 5.12138Z" fill="white"/>
</g>
<defs>
<clipPath id="clip0_901_4180">
<rect width="7.40625" height="7.40625" fill="white" transform="matrix(-1 0 0 1 8.1167 0.710999)"/>
</clipPath>
</defs>
</svg>
