<svg width="9" height="9" viewBox="0 0 9 9" fill="none" xmlns="http://www.w3.org/2000/svg">
<g clip-path="url(#clip0_933_1500)">
<path fill-rule="evenodd" clip-rule="evenodd" d="M7.49792 0.710526H8.11511V1.32771V7.49959V8.11678H7.49792H4.41199C4.07112 8.11678 3.7948 7.84045 3.7948 7.49959C3.7948 7.15873 4.07112 6.8824 4.41199 6.8824H6.88074V1.9449H4.41199C4.07112 1.9449 3.7948 1.66858 3.7948 1.32771C3.7948 0.98685 4.07112 0.710526 4.41199 0.710526H7.49792ZM2.47069 5.12133C2.59121 5.24185 2.59121 5.43724 2.47069 5.55775C2.35018 5.67826 2.15479 5.67826 2.03428 5.55775L1.1085 4.63197L0.890287 4.41376L1.1085 4.19555L2.03428 3.26977C2.15479 3.14926 2.35018 3.14926 2.47069 3.26977C2.59121 3.39028 2.59121 3.58567 2.47069 3.70619L2.07172 4.10517H5.33842C5.50886 4.10517 5.64702 4.24333 5.64702 4.41376C5.64702 4.58419 5.50886 4.72235 5.33842 4.72235H2.07172L2.47069 5.12133Z" fill="white"/>
</g>
<defs>
<clipPath id="clip0_933_1500">
<rect width="7.40625" height="7.40625" fill="white" transform="matrix(-1 0 0 1 8.1167 0.710983)"/>
</clipPath>
</defs>
</svg>
