<svg width="14" height="15" viewBox="0 0 14 15" fill="none" xmlns="http://www.w3.org/2000/svg">
<g clip-path="url(#clip0_291_9179)">
<path fill-rule="evenodd" clip-rule="evenodd" d="M8.52546 7.65629C8.52546 8.58502 7.77257 9.33791 6.84384 9.33791C5.9151 9.33791 5.16222 8.58502 5.16222 7.65629C5.16222 6.72756 5.9151 5.97467 6.84384 5.97467C7.77257 5.97467 8.52546 6.72756 8.52546 7.65629ZM3.48043 7.6563C3.48043 8.58503 2.72754 9.33792 1.79881 9.33792C0.870075 9.33792 0.117188 8.58503 0.117188 7.6563C0.117188 6.72756 0.870075 5.97468 1.79881 5.97468C2.72754 5.97468 3.48043 6.72756 3.48043 7.6563ZM11.8896 9.33791C12.8183 9.33791 13.5712 8.58502 13.5712 7.65629C13.5712 6.72756 12.8183 5.97467 11.8896 5.97467C10.9608 5.97467 10.208 6.72756 10.208 7.65629C10.208 8.58502 10.9608 9.33791 11.8896 9.33791Z" fill="white"/>
</g>
<defs>
<clipPath id="clip0_291_9179">
<rect width="13.453" height="13.453" fill="white" transform="translate(0.118652 0.930664)"/>
</clipPath>
</defs>
</svg>
