<svg width="14" height="14" viewBox="0 0 14 14" fill="none" xmlns="http://www.w3.org/2000/svg">
<g clip-path="url(#clip0_104_8745)">
<mask id="path-1-inside-1_104_8745" fill="white">
<path fill-rule="evenodd" clip-rule="evenodd" d="M0.370159 0.833368C0.589018 0.423811 1.09845 0.269219 1.50801 0.488079L3.98962 1.81421C4.22536 1.94018 4.38716 2.17074 4.42547 2.43526L4.66686 4.102H12.8902C13.1563 4.102 13.4067 4.22799 13.5653 4.4417C13.7239 4.6554 13.772 4.93158 13.6949 5.18631L12.2504 9.96037C12.1431 10.3151 11.8162 10.5577 11.4456 10.5577H4.63044C4.21263 10.5577 3.8582 10.2509 3.79831 9.83738L3.10691 5.06332L2.82214 3.09699L0.715448 1.97122C0.305891 1.75236 0.1513 1.24292 0.370159 0.833368ZM4.91039 5.78362L5.35825 8.87606H10.8216L11.7573 5.78362H4.91039ZM6.14148 12.5523C6.14148 13.2489 5.58026 13.8136 4.88797 13.8136C4.19568 13.8136 3.63446 13.2489 3.63446 12.5523C3.63446 11.8558 4.19568 11.2911 4.88797 11.2911C5.58026 11.2911 6.14148 11.8558 6.14148 12.5523ZM10.7183 13.8136C11.4105 13.8136 11.9718 13.2489 11.9718 12.5523C11.9718 11.8558 11.4105 11.2911 10.7183 11.2911C10.026 11.2911 9.46475 11.8558 9.46475 12.5523C9.46475 13.2489 10.026 13.8136 10.7183 13.8136Z"/>
</mask>
<path fill-rule="evenodd" clip-rule="evenodd" d="M0.370159 0.833368C0.589018 0.423811 1.09845 0.269219 1.50801 0.488079L3.98962 1.81421C4.22536 1.94018 4.38716 2.17074 4.42547 2.43526L4.66686 4.102H12.8902C13.1563 4.102 13.4067 4.22799 13.5653 4.4417C13.7239 4.6554 13.772 4.93158 13.6949 5.18631L12.2504 9.96037C12.1431 10.3151 11.8162 10.5577 11.4456 10.5577H4.63044C4.21263 10.5577 3.8582 10.2509 3.79831 9.83738L3.10691 5.06332L2.82214 3.09699L0.715448 1.97122C0.305891 1.75236 0.1513 1.24292 0.370159 0.833368ZM4.91039 5.78362L5.35825 8.87606H10.8216L11.7573 5.78362H4.91039ZM6.14148 12.5523C6.14148 13.2489 5.58026 13.8136 4.88797 13.8136C4.19568 13.8136 3.63446 13.2489 3.63446 12.5523C3.63446 11.8558 4.19568 11.2911 4.88797 11.2911C5.58026 11.2911 6.14148 11.8558 6.14148 12.5523ZM10.7183 13.8136C11.4105 13.8136 11.9718 13.2489 11.9718 12.5523C11.9718 11.8558 11.4105 11.2911 10.7183 11.2911C10.026 11.2911 9.46475 11.8558 9.46475 12.5523C9.46475 13.2489 10.026 13.8136 10.7183 13.8136Z" fill="white"/>
<path d="M1.50801 0.488079L1.11173 1.22965L1.50801 0.488079ZM0.370159 0.833368L1.11173 1.22965L1.11173 1.22965L0.370159 0.833368ZM3.98962 1.81421L4.3859 1.07264V1.07264L3.98962 1.81421ZM4.42547 2.43526L5.2576 2.31475V2.31475L4.42547 2.43526ZM4.66686 4.102L3.83473 4.22251L3.93904 4.94281H4.66686V4.102ZM13.5653 4.4417L14.2405 3.94059L14.2405 3.94059L13.5653 4.4417ZM13.6949 5.18631L14.4997 5.42982V5.42982L13.6949 5.18631ZM12.2504 9.96037L11.4456 9.71687V9.71687L12.2504 9.96037ZM3.79831 9.83738L4.63044 9.71687L3.79831 9.83738ZM3.10691 5.06332L2.27478 5.18383V5.18383L3.10691 5.06332ZM2.82214 3.09699L3.65427 2.97648L3.59334 2.55578L3.21842 2.35542L2.82214 3.09699ZM0.715448 1.97122L0.319168 2.71279H0.319168L0.715448 1.97122ZM5.35825 8.87606L4.52612 8.99657L4.63044 9.71687H5.35825V8.87606ZM4.91039 5.78362V4.94281H3.93904L4.07827 5.90413L4.91039 5.78362ZM10.8216 8.87606V9.71687H11.4456L11.6264 9.11956L10.8216 8.87606ZM11.7573 5.78362L12.5621 6.02712L12.8902 4.94281H11.7573V5.78362ZM1.90429 -0.25349C1.08517 -0.691209 0.0663089 -0.382027 -0.37141 0.437088L1.11173 1.22965V1.22965L1.90429 -0.25349ZM4.3859 1.07264L1.90429 -0.25349L1.11173 1.22965L3.59334 2.55578L4.3859 1.07264ZM5.2576 2.31475C5.18098 1.78569 4.85738 1.32459 4.3859 1.07264L3.59334 2.55577L3.59334 2.55578L5.2576 2.31475ZM5.49898 3.98148L5.2576 2.31475L3.59334 2.55577L3.83473 4.22251L5.49898 3.98148ZM12.8902 3.26119H4.66686V4.94281H12.8902V3.26119ZM14.2405 3.94059C13.9233 3.51318 13.4224 3.26119 12.8902 3.26119V4.94281L12.8902 4.94281L14.2405 3.94059ZM14.4997 5.42982C14.6539 4.92036 14.5577 4.368 14.2405 3.94059L12.8902 4.94281V4.94281L14.4997 5.42982ZM13.0552 10.2039L14.4997 5.42982L12.8902 4.94281L11.4456 9.71687L13.0552 10.2039ZM11.4456 11.3985C12.1868 11.3985 12.8405 10.9133 13.0552 10.2039L11.4456 9.71687L11.4456 9.71687V11.3985ZM4.63044 11.3985H11.4456V9.71687H4.63044V11.3985ZM2.96618 9.95789C3.08595 10.7849 3.79481 11.3985 4.63044 11.3985V9.71687L4.63044 9.71687L2.96618 9.95789ZM2.27478 5.18383L2.96618 9.95789L4.63044 9.71687L3.93904 4.94281L2.27478 5.18383ZM1.99001 3.21751L2.27478 5.18383L3.93904 4.94281L3.65427 2.97648L1.99001 3.21751ZM0.319168 2.71279L2.42586 3.83856L3.21842 2.35542L1.11173 1.22965L0.319168 2.71279ZM-0.37141 0.437088C-0.809129 1.2562 -0.499946 2.27507 0.319168 2.71279L1.11173 1.22965L1.11173 1.22965L-0.37141 0.437088ZM6.19038 8.75554L5.74252 5.66311L4.07827 5.90413L4.52612 8.99657L6.19038 8.75554ZM10.8216 8.03525H5.35825V9.71687H10.8216V8.03525ZM10.9525 5.54011L10.0168 8.63255L11.6264 9.11956L12.5621 6.02712L10.9525 5.54011ZM4.91039 6.62443H11.7573V4.94281H4.91039V6.62443ZM4.88797 14.6544C6.04948 14.6544 6.98229 13.7084 6.98229 12.5523H5.30067C5.30067 12.7894 5.11104 12.9727 4.88797 12.9727V14.6544ZM2.79365 12.5523C2.79365 13.7084 3.72646 14.6544 4.88797 14.6544V12.9727C4.6649 12.9727 4.47527 12.7894 4.47527 12.5523H2.79365ZM4.88797 10.4503C3.72646 10.4503 2.79365 11.3963 2.79365 12.5523H4.47527C4.47527 12.3153 4.6649 12.1319 4.88797 12.1319V10.4503ZM6.98229 12.5523C6.98229 11.3963 6.04948 10.4503 4.88797 10.4503V12.1319C5.11104 12.1319 5.30067 12.3153 5.30067 12.5523H6.98229ZM11.131 12.5523C11.131 12.7894 10.9413 12.9727 10.7183 12.9727V14.6544C11.8798 14.6544 12.8126 13.7084 12.8126 12.5523H11.131ZM10.7183 12.1319C10.9413 12.1319 11.131 12.3153 11.131 12.5523H12.8126C12.8126 11.3963 11.8798 10.4503 10.7183 10.4503V12.1319ZM10.3056 12.5523C10.3056 12.3153 10.4952 12.1319 10.7183 12.1319V10.4503C9.55674 10.4503 8.62394 11.3963 8.62394 12.5523H10.3056ZM10.7183 12.9727C10.4952 12.9727 10.3056 12.7894 10.3056 12.5523H8.62394C8.62394 13.7084 9.55674 14.6544 10.7183 14.6544V12.9727Z" fill="white" mask="url(#path-1-inside-1_104_8745)"/>
</g>
<defs>
<clipPath id="clip0_104_8745">
<rect width="13.453" height="13.453" fill="white" transform="translate(0.273438 0.360687)"/>
</clipPath>
</defs>
</svg>
