<svg width="14" height="15" viewBox="0 0 14 15" fill="none" xmlns="http://www.w3.org/2000/svg">
<g clip-path="url(#clip0_291_9147)">
<path fill-rule="evenodd" clip-rule="evenodd" d="M3.63448 7.63462C3.63448 8.56336 2.88159 9.31624 1.95286 9.31624C1.02413 9.31624 0.27124 8.56336 0.27124 7.63462C0.27124 6.70589 1.02413 5.953 1.95286 5.953C2.88159 5.953 3.63448 6.70589 3.63448 7.63462ZM8.67821 7.63471C8.67821 8.56344 7.92532 9.31633 6.99659 9.31633C6.06785 9.31633 5.31497 8.56344 5.31497 7.63471C5.31497 6.70597 6.06785 5.95309 6.99659 5.95309C7.92532 5.95309 8.67821 6.70597 8.67821 7.63471ZM12.0435 9.31633C12.9723 9.31633 13.7252 8.56344 13.7252 7.63471C13.7252 6.70597 12.9723 5.95309 12.0435 5.95309C11.1148 5.95309 10.3619 6.70597 10.3619 7.63471C10.3619 8.56344 11.1148 9.31633 12.0435 9.31633Z" fill="white"/>
</g>
<defs>
<clipPath id="clip0_291_9147">
<rect width="13.3953" height="13.453" fill="white" transform="translate(0.273438 0.907715)"/>
</clipPath>
</defs>
</svg>
