<svg width="32" height="31" viewBox="0 0 32 31" fill="none" xmlns="http://www.w3.org/2000/svg">
<circle cx="16.0688" cy="15.4298" r="15.4297" fill="#20DDBB"/>
<g clip-path="url(#clip0_291_8999)">
<mask id="path-2-inside-1_291_8999" fill="white">
<path fill-rule="evenodd" clip-rule="evenodd" d="M11.2024 10.8399C11.363 10.5393 11.737 10.4258 12.0376 10.5865L13.8592 11.5599C14.0322 11.6524 14.151 11.8216 14.1791 12.0158L14.3563 13.2392H20.3925C20.5879 13.2392 20.7717 13.3317 20.8881 13.4886C21.0046 13.6454 21.0398 13.8482 20.9833 14.0351L19.9229 17.5395C19.8442 17.7998 19.6042 17.9779 19.3322 17.9779H14.3296C14.0229 17.9779 13.7627 17.7527 13.7188 17.4492L13.2112 13.9449L13.0022 12.5015L11.4558 11.6751C11.1552 11.5145 11.0417 11.1405 11.2024 10.8399ZM14.5351 14.4736L14.8638 16.7436H18.8741L19.561 14.4736H14.5351ZM15.4396 19.4418C15.4396 19.9531 15.0277 20.3676 14.5195 20.3676C14.0113 20.3676 13.5994 19.9531 13.5994 19.4418C13.5994 18.9306 14.0113 18.5161 14.5195 18.5161C15.0277 18.5161 15.4396 18.9306 15.4396 19.4418ZM18.7991 20.3676C19.3073 20.3676 19.7193 19.9531 19.7193 19.4418C19.7193 18.9306 19.3073 18.5161 18.7991 18.5161C18.291 18.5161 17.879 18.9306 17.879 19.4418C17.879 19.9531 18.291 20.3676 18.7991 20.3676Z"/>
</mask>
<path fill-rule="evenodd" clip-rule="evenodd" d="M11.2024 10.8399C11.363 10.5393 11.737 10.4258 12.0376 10.5865L13.8592 11.5599C14.0322 11.6524 14.151 11.8216 14.1791 12.0158L14.3563 13.2392H20.3925C20.5879 13.2392 20.7717 13.3317 20.8881 13.4886C21.0046 13.6454 21.0398 13.8482 20.9833 14.0351L19.9229 17.5395C19.8442 17.7998 19.6042 17.9779 19.3322 17.9779H14.3296C14.0229 17.9779 13.7627 17.7527 13.7188 17.4492L13.2112 13.9449L13.0022 12.5015L11.4558 11.6751C11.1552 11.5145 11.0417 11.1405 11.2024 10.8399ZM14.5351 14.4736L14.8638 16.7436H18.8741L19.561 14.4736H14.5351ZM15.4396 19.4418C15.4396 19.9531 15.0277 20.3676 14.5195 20.3676C14.0113 20.3676 13.5994 19.9531 13.5994 19.4418C13.5994 18.9306 14.0113 18.5161 14.5195 18.5161C15.0277 18.5161 15.4396 18.9306 15.4396 19.4418ZM18.7991 20.3676C19.3073 20.3676 19.7193 19.9531 19.7193 19.4418C19.7193 18.9306 19.3073 18.5161 18.7991 18.5161C18.291 18.5161 17.879 18.9306 17.879 19.4418C17.879 19.9531 18.291 20.3676 18.7991 20.3676Z" fill="white"/>
<path d="M12.0376 10.5865L11.7467 11.1308L11.7467 11.1308L12.0376 10.5865ZM11.2024 10.8399L11.7467 11.1308L11.7467 11.1308L11.2024 10.8399ZM13.8592 11.5599L13.5683 12.1042L13.8592 11.5599ZM14.1791 12.0158L14.7899 11.9273V11.9273L14.1791 12.0158ZM14.3563 13.2392L13.7455 13.3277L13.8221 13.8564H14.3563V13.2392ZM20.8881 13.4886L20.3925 13.8564V13.8564L20.8881 13.4886ZM20.9833 14.0351L21.574 14.2139L21.574 14.2139L20.9833 14.0351ZM19.9229 17.5395L19.3322 17.3607L19.3322 17.3607L19.9229 17.5395ZM13.7188 17.4492L13.1079 17.5377V17.5377L13.7188 17.4492ZM13.2112 13.9449L13.8221 13.8564L13.2112 13.9449ZM13.0022 12.5015L13.613 12.413L13.5683 12.1042L13.2931 11.9572L13.0022 12.5015ZM11.4558 11.6751L11.7467 11.1308L11.7467 11.1308L11.4558 11.6751ZM14.8638 16.7436L14.253 16.832L14.3296 17.3607H14.8638V16.7436ZM14.5351 14.4736V13.8564H13.8221L13.9243 14.562L14.5351 14.4736ZM18.8741 16.7436V17.3607H19.3322L19.4649 16.9223L18.8741 16.7436ZM19.561 14.4736L20.1517 14.6523L20.3925 13.8564H19.561V14.4736ZM12.3285 10.0421C11.7272 9.72081 10.9793 9.94777 10.658 10.549L11.7467 11.1308H11.7467L12.3285 10.0421ZM14.1501 11.0155L12.3285 10.0421L11.7467 11.1308L13.5683 12.1042L14.1501 11.0155ZM14.7899 11.9273C14.7337 11.539 14.4962 11.2005 14.1501 11.0155L13.5683 12.1042H13.5683L14.7899 11.9273ZM14.9671 13.1508L14.7899 11.9273L13.5683 12.1042L13.7455 13.3277L14.9671 13.1508ZM20.3925 12.622H14.3563V13.8564H20.3925V12.622ZM21.3837 13.1207C21.1509 12.807 20.7832 12.622 20.3925 12.622V13.8564L20.3925 13.8564L21.3837 13.1207ZM21.574 14.2139C21.6872 13.8399 21.6166 13.4345 21.3837 13.1207L20.3925 13.8564L20.3925 13.8564L21.574 14.2139ZM20.5137 17.7182L21.574 14.2139L20.3925 13.8564L19.3322 17.3607L20.5137 17.7182ZM19.3322 18.5951C19.8762 18.5951 20.3561 18.239 20.5137 17.7182L19.3322 17.3607L19.3322 17.3607V18.5951ZM14.3296 18.5951H19.3322V17.3607H14.3296V18.5951ZM13.1079 17.5377C13.1959 18.1447 13.7162 18.5951 14.3296 18.5951V17.3607L14.3296 17.3607L13.1079 17.5377ZM12.6004 14.0333L13.1079 17.5377L14.3296 17.3607L13.8221 13.8564L12.6004 14.0333ZM12.3914 12.59L12.6004 14.0333L13.8221 13.8564L13.613 12.413L12.3914 12.59ZM11.1649 12.2195L12.7113 13.0458L13.2931 11.9572L11.7467 11.1308L11.1649 12.2195ZM10.658 10.549C10.3367 11.1503 10.5637 11.8982 11.1649 12.2195L11.7467 11.1308L11.7467 11.1308L10.658 10.549ZM15.4746 16.6551L15.1459 14.3851L13.9243 14.562L14.253 16.832L15.4746 16.6551ZM18.8741 16.1264H14.8638V17.3607H18.8741V16.1264ZM18.9702 14.2948L18.2834 16.5648L19.4649 16.9223L20.1517 14.6523L18.9702 14.2948ZM14.5351 15.0908H19.561V13.8564H14.5351V15.0908ZM14.5195 20.9848C15.3721 20.9848 16.0568 20.2904 16.0568 19.4418H14.8224C14.8224 19.6159 14.6832 19.7504 14.5195 19.7504V20.9848ZM12.9822 19.4418C12.9822 20.2904 13.6669 20.9848 14.5195 20.9848V19.7504C14.3557 19.7504 14.2165 19.6159 14.2165 19.4418H12.9822ZM14.5195 17.8989C13.6669 17.8989 12.9822 18.5933 12.9822 19.4418H14.2165C14.2165 19.2678 14.3557 19.1333 14.5195 19.1333V17.8989ZM16.0568 19.4418C16.0568 18.5933 15.3721 17.8989 14.5195 17.8989V19.1333C14.6832 19.1333 14.8224 19.2678 14.8224 19.4418H16.0568ZM19.1021 19.4418C19.1021 19.6159 18.9629 19.7504 18.7991 19.7504V20.9848C19.6517 20.9848 20.3365 20.2904 20.3365 19.4418H19.1021ZM18.7991 19.1333C18.9629 19.1333 19.1021 19.2678 19.1021 19.4418H20.3365C20.3365 18.5933 19.6517 17.8989 18.7991 17.8989V19.1333ZM18.4962 19.4418C18.4962 19.2678 18.6354 19.1333 18.7991 19.1333V17.8989C17.9465 17.8989 17.2618 18.5933 17.2618 19.4418H18.4962ZM18.7991 19.7504C18.6354 19.7504 18.4962 19.6159 18.4962 19.4418H17.2618C17.2618 20.2904 17.9465 20.9848 18.7991 20.9848V19.7504Z" fill="white" mask="url(#path-2-inside-1_291_8999)"/>
</g>
<defs>
<clipPath id="clip0_291_8999">
<rect width="9.875" height="9.875" fill="white" transform="translate(11.1309 10.4924)"/>
</clipPath>
</defs>
</svg>
