<svg width="14" height="14" viewBox="0 0 14 14" fill="none" xmlns="http://www.w3.org/2000/svg">
<g clip-path="url(#clip0_291_9185)">
<mask id="path-1-inside-1_291_9185" fill="white">
<path fill-rule="evenodd" clip-rule="evenodd" d="M0.21513 0.856805C0.433989 0.447248 0.943421 0.292657 1.35298 0.511516L3.83459 1.83764C4.07033 1.96362 4.23213 2.19417 4.27044 2.4587L4.51183 4.12543H12.7351C13.0013 4.12543 13.2517 4.25143 13.4103 4.46514C13.5689 4.67884 13.617 4.95502 13.5399 5.20975L12.0954 9.98381C11.9881 10.3385 11.6612 10.5811 11.2906 10.5811H4.47541C4.0576 10.5811 3.70317 10.2743 3.64328 9.86082L2.95188 5.08676L2.66711 3.12043L0.560418 1.99465C0.150861 1.77579 -0.00372979 1.26636 0.21513 0.856805ZM4.75537 5.80705L5.20322 8.89949H10.6666L11.6023 5.80705H4.75537ZM5.98645 12.576C5.98645 13.2726 5.42523 13.8373 4.73294 13.8373C4.04065 13.8373 3.47943 13.2726 3.47943 12.576C3.47943 11.8795 4.04065 11.3148 4.73294 11.3148C5.42523 11.3148 5.98645 11.8795 5.98645 12.576ZM10.5632 13.8373C11.2555 13.8373 11.8167 13.2726 11.8167 12.576C11.8167 11.8795 11.2555 11.3148 10.5632 11.3148C9.87093 11.3148 9.30972 11.8795 9.30972 12.576C9.30972 13.2726 9.87093 13.8373 10.5632 13.8373Z"/>
</mask>
<path fill-rule="evenodd" clip-rule="evenodd" d="M0.21513 0.856805C0.433989 0.447248 0.943421 0.292657 1.35298 0.511516L3.83459 1.83764C4.07033 1.96362 4.23213 2.19417 4.27044 2.4587L4.51183 4.12543H12.7351C13.0013 4.12543 13.2517 4.25143 13.4103 4.46514C13.5689 4.67884 13.617 4.95502 13.5399 5.20975L12.0954 9.98381C11.9881 10.3385 11.6612 10.5811 11.2906 10.5811H4.47541C4.0576 10.5811 3.70317 10.2743 3.64328 9.86082L2.95188 5.08676L2.66711 3.12043L0.560418 1.99465C0.150861 1.77579 -0.00372979 1.26636 0.21513 0.856805ZM4.75537 5.80705L5.20322 8.89949H10.6666L11.6023 5.80705H4.75537ZM5.98645 12.576C5.98645 13.2726 5.42523 13.8373 4.73294 13.8373C4.04065 13.8373 3.47943 13.2726 3.47943 12.576C3.47943 11.8795 4.04065 11.3148 4.73294 11.3148C5.42523 11.3148 5.98645 11.8795 5.98645 12.576ZM10.5632 13.8373C11.2555 13.8373 11.8167 13.2726 11.8167 12.576C11.8167 11.8795 11.2555 11.3148 10.5632 11.3148C9.87093 11.3148 9.30972 11.8795 9.30972 12.576C9.30972 13.2726 9.87093 13.8373 10.5632 13.8373Z" fill="#21D695"/>
<path d="M1.35298 0.511516L0.956698 1.25309L0.956698 1.25309L1.35298 0.511516ZM0.21513 0.856805L0.956698 1.25309L0.956698 1.25309L0.21513 0.856805ZM3.83459 1.83764L4.23087 1.09607V1.09607L3.83459 1.83764ZM4.27044 2.4587L5.10257 2.33819V2.33819L4.27044 2.4587ZM4.51183 4.12543L3.6797 4.24595L3.78401 4.96624H4.51183V4.12543ZM13.4103 4.46514L14.0855 3.96403L14.0855 3.96403L13.4103 4.46514ZM13.5399 5.20975L14.3447 5.45326V5.45326L13.5399 5.20975ZM12.0954 9.98381L11.2906 9.7403V9.7403L12.0954 9.98381ZM3.64328 9.86082L2.81115 9.98133L3.64328 9.86082ZM2.95188 5.08676L3.78401 4.96624L2.95188 5.08676ZM2.66711 3.12043L3.49924 2.99992L3.43831 2.57921L3.06339 2.37886L2.66711 3.12043ZM0.560418 1.99465L0.164138 2.73622H0.164138L0.560418 1.99465ZM5.20322 8.89949L4.3711 9.02001L4.47541 9.7403H5.20322V8.89949ZM4.75537 5.80705V4.96624H3.78401L3.92324 5.92757L4.75537 5.80705ZM10.6666 8.89949V9.7403H11.2906L11.4713 9.143L10.6666 8.89949ZM11.6023 5.80705L12.407 6.05056L12.7351 4.96624H11.6023V5.80705ZM1.74926 -0.230052C0.930144 -0.667771 -0.0887204 -0.358589 -0.526439 0.460525L0.956698 1.25309H0.956698L1.74926 -0.230052ZM4.23087 1.09607L1.74926 -0.230052L0.956698 1.25309L3.43831 2.57921L4.23087 1.09607ZM5.10257 2.33819C5.02595 1.80913 4.70235 1.34802 4.23087 1.09607L3.43831 2.57921L3.43831 2.57921L5.10257 2.33819ZM5.34396 4.00492L5.10257 2.33819L3.43831 2.57921L3.6797 4.24595L5.34396 4.00492ZM12.7351 3.28462H4.51183V4.96624H12.7351V3.28462ZM14.0855 3.96403C13.7682 3.53662 13.2674 3.28462 12.7351 3.28462V4.96624L12.7351 4.96625L14.0855 3.96403ZM14.3447 5.45326C14.4988 4.9438 14.4027 4.39144 14.0855 3.96403L12.7351 4.96624L12.7351 4.96625L14.3447 5.45326ZM12.9002 10.2273L14.3447 5.45326L12.7351 4.96624L11.2906 9.7403L12.9002 10.2273ZM11.2906 11.4219C12.0318 11.4219 12.6855 10.9367 12.9002 10.2273L11.2906 9.7403L11.2906 9.7403V11.4219ZM4.47541 11.4219H11.2906V9.7403H4.47541V11.4219ZM2.81115 9.98133C2.93092 10.8083 3.63978 11.4219 4.47541 11.4219V9.7403L4.47541 9.7403L2.81115 9.98133ZM2.11976 5.20727L2.81115 9.98133L4.47541 9.7403L3.78401 4.96624L2.11976 5.20727ZM1.83498 3.24094L2.11976 5.20727L3.78401 4.96624L3.49924 2.99992L1.83498 3.24094ZM0.164138 2.73622L2.27083 3.862L3.06339 2.37886L0.956698 1.25309L0.164138 2.73622ZM-0.526439 0.460525C-0.964158 1.27964 -0.654976 2.2985 0.164138 2.73622L0.956698 1.25309L0.956698 1.25309L-0.526439 0.460525ZM6.03535 8.77898L5.58749 5.68654L3.92324 5.92757L4.3711 9.02001L6.03535 8.77898ZM10.6666 8.05868H5.20322V9.7403H10.6666V8.05868ZM10.7975 5.56355L9.86178 8.65599L11.4713 9.143L12.407 6.05056L10.7975 5.56355ZM4.75537 6.64786H11.6023V4.96624H4.75537V6.64786ZM4.73294 14.6781C5.89445 14.6781 6.82726 13.7321 6.82726 12.576H5.14564C5.14564 12.8131 4.95601 12.9964 4.73294 12.9964V14.6781ZM2.63862 12.576C2.63862 13.7321 3.57143 14.6781 4.73294 14.6781V12.9964C4.50987 12.9964 4.32025 12.8131 4.32025 12.576H2.63862ZM4.73294 10.474C3.57143 10.474 2.63862 11.42 2.63862 12.576H4.32025C4.32025 12.339 4.50987 12.1556 4.73294 12.1556V10.474ZM6.82726 12.576C6.82726 11.42 5.89445 10.474 4.73294 10.474V12.1556C4.95601 12.1556 5.14564 12.339 5.14564 12.576H6.82726ZM10.9759 12.576C10.9759 12.8131 10.7863 12.9964 10.5632 12.9964V14.6781C11.7247 14.6781 12.6575 13.7321 12.6575 12.576H10.9759ZM10.5632 12.1556C10.7863 12.1556 10.9759 12.339 10.9759 12.576H12.6575C12.6575 11.42 11.7247 10.474 10.5632 10.474V12.1556ZM10.1505 12.576C10.1505 12.339 10.3402 12.1556 10.5632 12.1556V10.474C9.40172 10.474 8.46891 11.42 8.46891 12.576H10.1505ZM10.5632 12.9964C10.3402 12.9964 10.1505 12.8131 10.1505 12.576H8.46891C8.46891 13.7321 9.40171 14.6781 10.5632 14.6781V12.9964Z" fill="#21D695" mask="url(#path-1-inside-1_291_9185)"/>
</g>
<defs>
<clipPath id="clip0_291_9185">
<rect width="13.453" height="13.453" fill="white" transform="translate(0.118652 0.383606)"/>
</clipPath>
</defs>
</svg>
