<svg width="15" height="14" viewBox="0 0 15 14" fill="none" xmlns="http://www.w3.org/2000/svg">
<g clip-path="url(#clip0_104_8812)">
<mask id="path-1-inside-1_104_8812" fill="white">
<path fill-rule="evenodd" clip-rule="evenodd" d="M0.97929 0.821679C1.19815 0.412122 1.70758 0.257531 2.11714 0.476391L4.59875 1.80252C4.83449 1.92849 4.99629 2.15905 5.0346 2.42357L5.27599 4.09031H13.4993C13.7654 4.09031 14.0159 4.2163 14.1745 4.43001C14.3331 4.64372 14.3811 4.9199 14.3041 5.17463L12.8595 9.94869C12.7522 10.3034 12.4253 10.546 12.0548 10.546H5.23957C4.82176 10.546 4.46733 10.2392 4.40744 9.82569L3.71604 5.05163L3.43127 3.08531L1.32458 1.95953C0.915021 1.74067 0.76043 1.23124 0.97929 0.821679ZM5.51953 5.77193L5.96738 8.86437H11.4307L12.3664 5.77193H5.51953ZM6.75061 12.5409C6.75061 13.2375 6.18939 13.8021 5.4971 13.8021C4.80481 13.8021 4.24359 13.2375 4.24359 12.5409C4.24359 11.8444 4.80481 11.2797 5.4971 11.2797C6.18939 11.2797 6.75061 11.8444 6.75061 12.5409ZM11.3274 13.8021C12.0197 13.8021 12.5809 13.2375 12.5809 12.5409C12.5809 11.8444 12.0197 11.2797 11.3274 11.2797C10.6351 11.2797 10.0739 11.8444 10.0739 12.5409C10.0739 13.2375 10.6351 13.8021 11.3274 13.8021Z"/>
</mask>
<path fill-rule="evenodd" clip-rule="evenodd" d="M0.97929 0.821679C1.19815 0.412122 1.70758 0.257531 2.11714 0.476391L4.59875 1.80252C4.83449 1.92849 4.99629 2.15905 5.0346 2.42357L5.27599 4.09031H13.4993C13.7654 4.09031 14.0159 4.2163 14.1745 4.43001C14.3331 4.64372 14.3811 4.9199 14.3041 5.17463L12.8595 9.94869C12.7522 10.3034 12.4253 10.546 12.0548 10.546H5.23957C4.82176 10.546 4.46733 10.2392 4.40744 9.82569L3.71604 5.05163L3.43127 3.08531L1.32458 1.95953C0.915021 1.74067 0.76043 1.23124 0.97929 0.821679ZM5.51953 5.77193L5.96738 8.86437H11.4307L12.3664 5.77193H5.51953ZM6.75061 12.5409C6.75061 13.2375 6.18939 13.8021 5.4971 13.8021C4.80481 13.8021 4.24359 13.2375 4.24359 12.5409C4.24359 11.8444 4.80481 11.2797 5.4971 11.2797C6.18939 11.2797 6.75061 11.8444 6.75061 12.5409ZM11.3274 13.8021C12.0197 13.8021 12.5809 13.2375 12.5809 12.5409C12.5809 11.8444 12.0197 11.2797 11.3274 11.2797C10.6351 11.2797 10.0739 11.8444 10.0739 12.5409C10.0739 13.2375 10.6351 13.8021 11.3274 13.8021Z" fill="#21D695"/>
<path d="M2.11714 0.476391L1.72086 1.21796L1.72086 1.21796L2.11714 0.476391ZM0.97929 0.821679L1.72086 1.21796L1.72086 1.21796L0.97929 0.821679ZM4.59875 1.80252L4.99503 1.06095V1.06095L4.59875 1.80252ZM5.0346 2.42357L5.86673 2.30306V2.30306L5.0346 2.42357ZM5.27599 4.09031L4.44386 4.21082L4.54817 4.93112H5.27599V4.09031ZM14.1745 4.43001L14.8496 3.9289L14.8496 3.9289L14.1745 4.43001ZM14.3041 5.17463L15.1088 5.41813V5.41813L14.3041 5.17463ZM12.8595 9.94869L12.0548 9.70518V9.70518L12.8595 9.94869ZM4.40744 9.82569L3.57531 9.9462L4.40744 9.82569ZM3.71604 5.05163L4.54817 4.93112L3.71604 5.05163ZM3.43127 3.08531L4.2634 2.96479L4.20247 2.54409L3.82755 2.34374L3.43127 3.08531ZM1.32458 1.95953L0.928299 2.7011H0.928299L1.32458 1.95953ZM5.96738 8.86437L5.13526 8.98488L5.23957 9.70518H5.96738V8.86437ZM5.51953 5.77193V4.93112H4.54817L4.6874 5.89244L5.51953 5.77193ZM11.4307 8.86437V9.70518H12.0548L12.2355 9.10788L11.4307 8.86437ZM12.3664 5.77193L13.1712 6.01544L13.4993 4.93112H12.3664V5.77193ZM2.51342 -0.265178C1.6943 -0.702897 0.67544 -0.393715 0.237721 0.425399L1.72086 1.21796H1.72086L2.51342 -0.265178ZM4.99503 1.06095L2.51342 -0.265178L1.72086 1.21796L4.20247 2.54409L4.99503 1.06095ZM5.86673 2.30306C5.79011 1.77401 5.46651 1.3129 4.99503 1.06095L4.20247 2.54409L4.20247 2.54409L5.86673 2.30306ZM6.10812 3.9698L5.86673 2.30306L4.20247 2.54409L4.44386 4.21082L6.10812 3.9698ZM13.4993 3.2495H5.27599V4.93112H13.4993V3.2495ZM14.8496 3.9289C14.5324 3.50149 14.0316 3.2495 13.4993 3.2495V4.93112L13.4993 4.93112L14.8496 3.9289ZM15.1088 5.41813C15.263 4.90867 15.1669 4.35632 14.8496 3.9289L13.4993 4.93112L13.4993 4.93112L15.1088 5.41813ZM13.6643 10.1922L15.1088 5.41813L13.4993 4.93112L12.0548 9.70518L13.6643 10.1922ZM12.0548 11.3868C12.7959 11.3868 13.4497 10.9016 13.6643 10.1922L12.0548 9.70518L12.0548 9.70518V11.3868ZM5.23957 11.3868H12.0548V9.70518H5.23957V11.3868ZM3.57531 9.9462C3.69508 10.7732 4.40394 11.3868 5.23957 11.3868V9.70518L5.23957 9.70518L3.57531 9.9462ZM2.88392 5.17214L3.57531 9.9462L5.23957 9.70518L4.54817 4.93112L2.88392 5.17214ZM2.59914 3.20582L2.88392 5.17214L4.54817 4.93112L4.2634 2.96479L2.59914 3.20582ZM0.928299 2.7011L3.03499 3.82687L3.82755 2.34374L1.72086 1.21796L0.928299 2.7011ZM0.237721 0.425399C-0.199998 1.24451 0.109184 2.26338 0.928299 2.7011L1.72086 1.21796L1.72086 1.21796L0.237721 0.425399ZM6.79951 8.74386L6.35166 5.65142L4.6874 5.89244L5.13526 8.98488L6.79951 8.74386ZM11.4307 8.02356H5.96738V9.70518H11.4307V8.02356ZM11.5616 5.52842L10.6259 8.62086L12.2355 9.10788L13.1712 6.01544L11.5616 5.52842ZM5.51953 6.61274H12.3664V4.93112H5.51953V6.61274ZM5.4971 14.6429C6.65861 14.6429 7.59142 13.697 7.59142 12.5409H5.9098C5.9098 12.778 5.72017 12.9613 5.4971 12.9613V14.6429ZM3.40278 12.5409C3.40278 13.697 4.33559 14.6429 5.4971 14.6429V12.9613C5.27403 12.9613 5.08441 12.778 5.08441 12.5409H3.40278ZM5.4971 10.4389C4.33559 10.4389 3.40278 11.3849 3.40278 12.5409H5.08441C5.08441 12.3039 5.27403 12.1205 5.4971 12.1205V10.4389ZM7.59142 12.5409C7.59142 11.3849 6.65861 10.4389 5.4971 10.4389V12.1205C5.72017 12.1205 5.9098 12.3039 5.9098 12.5409H7.59142ZM11.7401 12.5409C11.7401 12.778 11.5505 12.9613 11.3274 12.9613V14.6429C12.4889 14.6429 13.4217 13.697 13.4217 12.5409H11.7401ZM11.3274 12.1205C11.5505 12.1205 11.7401 12.3039 11.7401 12.5409H13.4217C13.4217 11.3849 12.4889 10.4389 11.3274 10.4389V12.1205ZM10.9147 12.5409C10.9147 12.3039 11.1043 12.1205 11.3274 12.1205V10.4389C10.1659 10.4389 9.23307 11.3849 9.23307 12.5409H10.9147ZM11.3274 12.9613C11.1043 12.9613 10.9147 12.778 10.9147 12.5409H9.23307C9.23307 13.697 10.1659 14.6429 11.3274 14.6429V12.9613Z" fill="#21D695" mask="url(#path-1-inside-1_104_8812)"/>
</g>
<defs>
<clipPath id="clip0_104_8812">
<rect width="13.453" height="13.453" fill="white" transform="translate(0.882812 0.34848)"/>
</clipPath>
</defs>
</svg>
