<svg width="14" height="14" viewBox="0 0 14 14" fill="none" xmlns="http://www.w3.org/2000/svg">
<g clip-path="url(#clip0_291_9153)">
<mask id="path-1-inside-1_291_9153" fill="white">
<path fill-rule="evenodd" clip-rule="evenodd" d="M0.370159 0.833307C0.589018 0.423749 1.09845 0.269158 1.50801 0.488018L3.98962 1.81415C4.22536 1.94012 4.38716 2.17067 4.42547 2.4352L4.66686 4.10194H12.8902C13.1563 4.10194 13.4067 4.22793 13.5653 4.44164C13.7239 4.65534 13.772 4.93152 13.6949 5.18625L12.2504 9.96031C12.1431 10.315 11.8162 10.5576 11.4456 10.5576H4.63044C4.21263 10.5576 3.8582 10.2508 3.79831 9.83732L3.10691 5.06326L2.82214 3.09693L0.715448 1.97116C0.305891 1.7523 0.1513 1.24286 0.370159 0.833307ZM4.91039 5.78356L5.35825 8.87599H10.8216L11.7573 5.78356H4.91039ZM6.14148 12.5523C6.14148 13.2488 5.58026 13.8135 4.88797 13.8135C4.19568 13.8135 3.63446 13.2488 3.63446 12.5523C3.63446 11.8557 4.19568 11.2911 4.88797 11.2911C5.58026 11.2911 6.14148 11.8557 6.14148 12.5523ZM10.7183 13.8135C11.4105 13.8135 11.9718 13.2488 11.9718 12.5523C11.9718 11.8557 11.4105 11.2911 10.7183 11.2911C10.026 11.2911 9.46475 11.8557 9.46475 12.5523C9.46475 13.2488 10.026 13.8135 10.7183 13.8135Z"/>
</mask>
<path fill-rule="evenodd" clip-rule="evenodd" d="M0.370159 0.833307C0.589018 0.423749 1.09845 0.269158 1.50801 0.488018L3.98962 1.81415C4.22536 1.94012 4.38716 2.17067 4.42547 2.4352L4.66686 4.10194H12.8902C13.1563 4.10194 13.4067 4.22793 13.5653 4.44164C13.7239 4.65534 13.772 4.93152 13.6949 5.18625L12.2504 9.96031C12.1431 10.315 11.8162 10.5576 11.4456 10.5576H4.63044C4.21263 10.5576 3.8582 10.2508 3.79831 9.83732L3.10691 5.06326L2.82214 3.09693L0.715448 1.97116C0.305891 1.7523 0.1513 1.24286 0.370159 0.833307ZM4.91039 5.78356L5.35825 8.87599H10.8216L11.7573 5.78356H4.91039ZM6.14148 12.5523C6.14148 13.2488 5.58026 13.8135 4.88797 13.8135C4.19568 13.8135 3.63446 13.2488 3.63446 12.5523C3.63446 11.8557 4.19568 11.2911 4.88797 11.2911C5.58026 11.2911 6.14148 11.8557 6.14148 12.5523ZM10.7183 13.8135C11.4105 13.8135 11.9718 13.2488 11.9718 12.5523C11.9718 11.8557 11.4105 11.2911 10.7183 11.2911C10.026 11.2911 9.46475 11.8557 9.46475 12.5523C9.46475 13.2488 10.026 13.8135 10.7183 13.8135Z" fill="white"/>
<path d="M1.50801 0.488018L1.11173 1.22959L1.50801 0.488018ZM0.370159 0.833307L1.11173 1.22959L1.11173 1.22959L0.370159 0.833307ZM3.98962 1.81415L4.3859 1.07258V1.07258L3.98962 1.81415ZM4.42547 2.4352L5.2576 2.31469V2.31469L4.42547 2.4352ZM4.66686 4.10194L3.83473 4.22245L3.93904 4.94275H4.66686V4.10194ZM13.5653 4.44164L14.2405 3.94053L14.2405 3.94053L13.5653 4.44164ZM13.6949 5.18625L14.4997 5.42976V5.42976L13.6949 5.18625ZM12.2504 9.96031L11.4456 9.7168V9.71681L12.2504 9.96031ZM3.79831 9.83732L4.63044 9.71681L3.79831 9.83732ZM3.10691 5.06326L2.27478 5.18377V5.18377L3.10691 5.06326ZM2.82214 3.09693L3.65427 2.97642L3.59334 2.55571L3.21842 2.35536L2.82214 3.09693ZM0.715448 1.97116L0.319168 2.71272H0.319168L0.715448 1.97116ZM5.35825 8.87599L4.52612 8.99651L4.63044 9.71681H5.35825V8.87599ZM4.91039 5.78356V4.94275H3.93904L4.07827 5.90407L4.91039 5.78356ZM10.8216 8.87599V9.71681H11.4456L11.6264 9.1195L10.8216 8.87599ZM11.7573 5.78356L12.5621 6.02706L12.8902 4.94275H11.7573V5.78356ZM1.90429 -0.253551C1.08517 -0.69127 0.0663089 -0.382088 -0.37141 0.437027L1.11173 1.22959V1.22959L1.90429 -0.253551ZM4.3859 1.07258L1.90429 -0.253551L1.11173 1.22959L3.59334 2.55571L4.3859 1.07258ZM5.2576 2.31469C5.18098 1.78563 4.85738 1.32453 4.3859 1.07258L3.59334 2.55571L3.59334 2.55571L5.2576 2.31469ZM5.49898 3.98142L5.2576 2.31469L3.59334 2.55571L3.83473 4.22245L5.49898 3.98142ZM12.8902 3.26112H4.66686V4.94275H12.8902V3.26112ZM14.2405 3.94053C13.9233 3.51312 13.4224 3.26112 12.8902 3.26112V4.94275L12.8902 4.94275L14.2405 3.94053ZM14.4997 5.42976C14.6539 4.9203 14.5577 4.36794 14.2405 3.94053L12.8902 4.94275V4.94275L14.4997 5.42976ZM13.0552 10.2038L14.4997 5.42976L12.8902 4.94275L11.4456 9.7168L13.0552 10.2038ZM11.4456 11.3984C12.1868 11.3984 12.8405 10.9132 13.0552 10.2038L11.4456 9.71681L11.4456 9.7168V11.3984ZM4.63044 11.3984H11.4456V9.7168H4.63044V11.3984ZM2.96618 9.95783C3.08595 10.7848 3.79481 11.3984 4.63044 11.3984V9.7168L4.63044 9.71681L2.96618 9.95783ZM2.27478 5.18377L2.96618 9.95783L4.63044 9.71681L3.93904 4.94275L2.27478 5.18377ZM1.99001 3.21744L2.27478 5.18377L3.93904 4.94275L3.65427 2.97642L1.99001 3.21744ZM0.319168 2.71272L2.42586 3.8385L3.21842 2.35536L1.11173 1.22959L0.319168 2.71272ZM-0.37141 0.437027C-0.809129 1.25614 -0.499946 2.27501 0.319168 2.71272L1.11173 1.22959L1.11173 1.22959L-0.37141 0.437027ZM6.19038 8.75548L5.74252 5.66304L4.07827 5.90407L4.52612 8.99651L6.19038 8.75548ZM10.8216 8.03518H5.35825V9.71681H10.8216V8.03518ZM10.9525 5.54005L10.0168 8.63249L11.6264 9.1195L12.5621 6.02706L10.9525 5.54005ZM4.91039 6.62437H11.7573V4.94275H4.91039V6.62437ZM4.88797 14.6543C6.04948 14.6543 6.98229 13.7083 6.98229 12.5523H5.30067C5.30067 12.7893 5.11104 12.9727 4.88797 12.9727V14.6543ZM2.79365 12.5523C2.79365 13.7083 3.72646 14.6543 4.88797 14.6543V12.9727C4.6649 12.9727 4.47527 12.7893 4.47527 12.5523H2.79365ZM4.88797 10.4503C3.72646 10.4503 2.79365 11.3962 2.79365 12.5523H4.47527C4.47527 12.3152 4.6649 12.1319 4.88797 12.1319V10.4503ZM6.98229 12.5523C6.98229 11.3962 6.04948 10.4503 4.88797 10.4503V12.1319C5.11104 12.1319 5.30067 12.3152 5.30067 12.5523H6.98229ZM11.131 12.5523C11.131 12.7893 10.9413 12.9727 10.7183 12.9727V14.6543C11.8798 14.6543 12.8126 13.7083 12.8126 12.5523H11.131ZM10.7183 12.1319C10.9413 12.1319 11.131 12.3152 11.131 12.5523H12.8126C12.8126 11.3962 11.8798 10.4503 10.7183 10.4503V12.1319ZM10.3056 12.5523C10.3056 12.3152 10.4952 12.1319 10.7183 12.1319V10.4503C9.55674 10.4503 8.62394 11.3962 8.62394 12.5523H10.3056ZM10.7183 12.9727C10.4952 12.9727 10.3056 12.7893 10.3056 12.5523H8.62394C8.62394 13.7083 9.55674 14.6543 10.7183 14.6543V12.9727Z" fill="white" mask="url(#path-1-inside-1_291_9153)"/>
</g>
<defs>
<clipPath id="clip0_291_9153">
<rect width="13.453" height="13.453" fill="white" transform="translate(0.273438 0.360657)"/>
</clipPath>
</defs>
</svg>
